<svg xmlns="http://www.w3.org/2000/svg" width="24" height="24" viewBox="0 0 24 24">
  <defs>
    <style>
      .cls-1 {
        fill: #fff;
      }
    </style>
  </defs>
  <path id="horn" class="cls-1" d="M20.6,0V20.564a.929.929,0,0,0,.309,0h2.781A.307.307,0,0,0,24,20.255V.343a.288.288,0,0,0-.309-.308H20.567ZM17.167,1.714,7.176,6.752a2,2,0,0,1-.652.1H.309A.288.288,0,0,0,0,7.163v6.2a.288.288,0,0,0,.309.308H3.433L6.97,23a1.846,1.846,0,0,0,2.369.857,1.84,1.84,0,0,0,.858-2.365l-2.575-6.1a.906.906,0,0,1,.961-.754v-.1l8.584,4.284V1.679Z" transform="translate(0)"/>
</svg>
