<svg xmlns="http://www.w3.org/2000/svg" width="39.997" height="32" viewBox="0 0 39.997 32">
  <defs>
    <style>
      .cls-1 {
        fill: #fff;
      }
    </style>
  </defs>
  <path id="user-edit" class="cls-1" d="M14,16A8,8,0,1,0,6,8,8,8,0,0,0,14,16Zm5.6,2H18.556a10.879,10.879,0,0,1-9.112,0H8.4A8.4,8.4,0,0,0,0,26.4V29a3,3,0,0,0,3,3H20.181a3,3,0,0,1-.162-1.331l.425-3.806.075-.694.494-.494,4.831-4.831A8.314,8.314,0,0,0,19.6,18Zm2.831,9.081-.425,3.812a1,1,0,0,0,1.1,1.1l3.806-.425,8.619-8.619-4.481-4.481-8.619,8.612ZM39.562,16.806l-2.369-2.369a1.5,1.5,0,0,0-2.112,0L32.718,16.8l-.256.256,4.487,4.481,2.612-2.612A1.505,1.505,0,0,0,39.562,16.806Z"/>
</svg>
